# xmcd
#
# Track frame offsets:
#	150
#	11506
#	28270
#	43279
#	57380
#	72058
#	82917
#	98123
#	114433
#	131986
#
# Disc length: 1972 seconds
#
# Revision: 0
# Processed by: cddbd v1.4PL0 Copyright (c) Steve Scherf et al.
# Submitted via: dBpowerAMP V4.0
#
DISCID=8507b20a
DTITLE=Leif Aase - Look What I Stepped Into
DYEAR=2000
DGENRE=Country
TTITLE0=Look What I Stepped Into
TTITLE1=She Left Me Holdin' The Bottle
TTITLE2=I Wish Your Memory Would Get Lost
TTITLE3=Right Where She Wants Me
TTITLE4=Sleepin' With My Fingers Crossed
TTITLE5=Hurtin' Too Close To Home
TTITLE6=The First Lasting Thing I Do
TTITLE7=I Got My Hands Full
TTITLE8=Wish I Would Have Woke Up
TTITLE9=Stranger Called The Blue
EXTD=
EXTT0=
EXTT1=
EXTT2=
EXTT3=
EXTT4=
EXTT5=
EXTT6=
EXTT7=
EXTT8=
EXTT9=
PLAYORDER=
